#!OML:ASF E:\Steps\Project 1\Capture day 1\Session 2\Subject.ASF
:FULLY-SPECIFIED
:DEGREES
79
root 9.4291 16.3581 9.42457 -150.75 -3.32413 -179.633
lowerback -28.1481 -1.77535 -5.42794
upperback -3.23176 -1.4996 -0.299057
thorax 12.0944 -1.31756 2.14933
lowerneck 0.0961516 0.13134 -4.06428
upperneck 8.84246 -0.665487 6.9445
head 2.88524 -0.42755 2.98821
rclavicle -1.39149e-015 -7.95139e-015
rhumerus -34.2197 -18.5179 -80.8448
rradius 28.7074
rwrist 0.67396
rhand -7.22807 -50.8404
rfingers 7.12502
rthumb 18.6515 -79.9663
lclavicle -1.39149e-015 -7.95139e-015
lhumerus -29.1712 4.64717 81.3365
lradius 20.7536
lwrist -8.3961
lhand -20.3463 -12.2202
lfingers 7.12502
lthumb 6.00546 17.6747
rfemur -27.4285 7.72002 18.3161
rtibia 6.73838
rfoot -17.7804 -7.3545
rtoes -33.9799
lfemur -27.6601 -9.24629 -15.9657
ltibia 7.82816
lfoot -8.23462 4.95184
ltoes -40.85
80
root 9.42949 16.3594 9.4277 -150.71 -3.33696 -179.639
lowerback -28.0784 -1.79275 -5.40916
upperback -3.20023 -1.5239 -0.287811
thorax 12.0972 -1.32493 2.14364
lowerneck 0.0656782 0.137791 -4.08979
upperneck 8.84798 -0.654071 6.94361
head 2.89234 -0.421578 2.99336
rclavicle 2.48481e-015 -2.06736e-014
rhumerus -34.1144 -18.1232 -81.0617
rradius 28.892
rwrist 0.188756
rhand -7.42254 -52.5937
rfingers 7.12502
rthumb 18.4644 -81.7374
lclavicle 2.48481e-015 -2.06736e-014
lhumerus -29.2091 4.47529 81.3428
lradius 20.8286
lwrist -8.6644
lhand -20.9455 -12.5357
lfingers 7.12502
lthumb 5.42701 17.3748
rfemur -27.4829 7.75344 18.2948
rtibia 6.73997
rfoot -17.7541 -7.38743
rtoes -33.9682
lfemur -27.7263 -9.33716 -15.9213
ltibia 7.86487
lfoot -8.30139 4.97487
ltoes -40.008
81
root 9.42892 16.3603 9.43054 -150.715 -3.36271 -179.63
lowerback -27.9646 -1.82724 -5.37384
upperback -3.12175 -1.56975 -0.241435
thorax 12.1346 -1.33899 2.16134
lowerneck -0.0198553 0.140484 -4.1389
upperneck 8.85473 -0.644269 6.95431
head 2.91069 -0.414959 3.0075
rclavicle 2.68359e-015 -2.38542e-015
rhumerus -33.8776 -17.9459 -81.1417
rradius 28.9112
rwrist -0.00582538
rhand -7.77083 -54.4588
rfingers 7.12502
rthumb 18.1293 -83.6339
lclavicle 2.68359e-015 -2.38542e-015
lhumerus -29.2032 4.30036 81.4142
lradius 21.0256
lwrist -8.75696
lhand -21.0074 -12.8301
lfingers 7.12502
lthumb 5.36716 17.0819
rfemur -27.4698 7.69739 18.3337
rtibia 6.71389
rfoot -17.7653 -7.27827
rtoes -34.0333
lfemur -27.7372 -9.32379 -15.9139
ltibia 7.90194
lfoot -8.36229 4.89889
ltoes -39.3484
82
root 9.42804 16.361 9.43191 -150.745 -3.35692 -179.588
lowerback -27.7868 -1.84248 -5.28063
upperback -3.09403 -1.62041 -0.200442
thorax 12.0779 -1.35275 2.13974
lowerneck -0.0574718 0.144671 -4.22111
upperneck 8.8728 -0.636343 6.9696
head 2.92448 -0.412102 3.02921
rclavicle -2.98177e-015 -6.36111e-015
rhumerus -33.835 -17.843 -81.1507
rradius 28.963
rwrist 0.132341
rhand -8.26103 -55.9782
rfingers 7.12502
rthumb 17.6577 -85.1965
lclavicle -2.98177e-015 -6.36111e-015
lhumerus -29.3076 4.23369 81.4459
lradius 21.2643
lwrist -8.71429
lhand -21.2734 -12.8673
lfingers 7.12502
lthumb 5.11038 17.0511
rfemur -27.4791 7.60446 18.422
rtibia 6.79541
rfoot -17.8148 -7.12548
rtoes -33.962
lfemur -27.6924 -9.33389 -15.8673
ltibia 7.84738
lfoot -8.32872 4.91226
ltoes -39.6365
83
root 9.42783 16.3623 9.43382 -150.719 -3.36457 -179.559
lowerback -27.5996 -1.83997 -5.17562
upperback -3.11692 -1.65818 -0.199318
thorax 11.9541 -1.36112 2.07131
lowerneck -0.0852473 0.14084 -4.28374
upperneck 8.89581 -0.640959 6.98132
head 2.93868 -0.415477 3.04568
rclavicle -1.68967e-015 1.03368e-014
rhumerus -33.885 -17.8695 -81.0882
rradius 28.8786
rwrist 0.422073
rhand -8.33992 -55.4478
rfingers 7.12502
rthumb 17.5817 -84.6728
lclavicle -1.68967e-015 1.03368e-014
lhumerus -29.403 4.18899 81.3996
lradius 21.3456
lwrist -8.8351
lhand -21.9078 -13.0353
lfingers 7.12502
lthumb 4.49776 16.897
rfemur -27.563 7.49343 18.491
rtibia 6.90209
rfoot -17.8704 -7.05253
rtoes -33.9278
lfemur -27.7616 -9.3579 -15.8151
ltibia 7.89124
lfoot -8.32856 4.93781
ltoes -40.1446
84
root 9.42842 16.3637 9.43694 -150.648 -3.39166 -179.558
lowerback -27.5031 -1.85133 -5.15417
upperback -3.10741 -1.6803 -0.19088
thorax 11.9163 -1.36759 2.06276
lowerneck -0.0938877 0.131737 -4.20865
upperneck 8.89313 -0.65436 6.96472
head 2.9392 -0.420181 3.0254
rclavicle 2.28602e-015 -3.18055e-015
rhumerus -33.8883 -18.1508 -80.8586
rradius 28.5613
rwrist 0.867579
rhand -7.80386 -52.6365
rfingers 7.12502
rthumb 18.0976 -81.8145
lclavicle 2.28602e-015 -3.18055e-015
lhumerus -29.4151 3.79169 81.428
lradius 21.4784
lwrist -8.77148
lhand -21.9094 -12.9666
lfingers 7.12502
lthumb 4.49628 16.9657
rfemur -27.6677 7.44584 18.4994
rtibia 6.93405
rfoot -17.8806 -7.0832
rtoes -34.1693
lfemur -27.9088 -9.31491 -15.8132
ltibia 7.97871
lfoot -8.37119 4.91189
ltoes -40.0115
85
root 9.4291 16.3659 9.4388 -150.661 -3.39602 -179.534
lowerback -27.4181 -1.86321 -5.14723
upperback -3.06259 -1.69235 -0.169755
thorax 11.9258 -1.36931 2.08027
lowerneck -0.000839914 0.132337 -4.11319
upperneck 8.87276 -0.660507 6.94522
head 2.91389 -0.424032 2.99919
rclavicle -5.36719e-015 -1.19271e-014
rhumerus -33.9941 -18.0824 -80.7637
rradius 28.4982
rwrist 0.925466
rhand -7.02541 -50.4388
rfingers 7.12502
rthumb 18.8464 -79.5458
lclavicle -5.36719e-015 -1.19271e-014
lhumerus -29.5394 3.30321 81.4957
lradius 21.744
lwrist -8.48541
lhand -21.8201 -12.9399
lfingers 7.12502
lthumb 4.58248 16.9906
rfemur -27.6651 7.51236 18.5158
rtibia 6.95047
rfoot -17.8501 -7.15092
rtoes -34.3049
lfemur -27.9113 -9.27265 -15.8008
ltibia 7.96486
lfoot -8.34936 4.92778
ltoes -39.7781
86
root 9.43025 16.3678 9.44179 -150.712 -3.3731 -179.473
lowerback -27.2607 -1.84458 -5.09401
upperback -3.04727 -1.68458 -0.165134
thorax 11.8595 -1.35874 2.06179
lowerneck 0.15379 0.137247 -4.08617
upperneck 8.86214 -0.664889 6.9427
head 2.8813 -0.430878 2.99149
rclavicle 1.26228e-014 3.33958e-014
rhumerus -34.2172 -17.722 -80.8244
rradius 28.765
rwrist 0.64498
rhand -6.60446 -50.2355
rfingers 7.12502
rthumb 19.2512 -79.3027
lclavicle 1.26228e-014 3.33958e-014
lhumerus -29.7967 2.86542 81.5224
lradius 22.0659
lwrist -8.05294
lhand -21.4061 -13.0389
lfingers 7.12502
lthumb 4.98226 16.8825
rfemur -27.6543 7.65486 18.562
rtibia 7.00784
rfoot -17.8472 -7.20322
rtoes -34.1896
lfemur -27.8348 -9.2768 -15.7258
ltibia 7.87874
lfoot -8.30336 4.97246
ltoes -39.4854
87
root 9.43219 16.367 9.44752 -150.607 -3.35392 -179.448
lowerback -27.2302 -1.83607 -5.05557
upperback -3.02547 -1.68073 -0.168006
thorax 11.8677 -1.35345 2.03842
lowerneck 0.248161 0.147939 -4.09454
upperneck 8.85656 -0.656507 6.94513
head 2.86136 -0.4301 2.99314
rclavicle 9.34288e-015 -1.19271e-014
rhumerus -34.2529 -17.5852 -80.8556
rradius 28.9016
rwrist 0.512419
rhand -7.13627 -51.0744
rfingers 7.12502
rthumb 18.7398 -80.1917
lclavicle 9.34288e-015 -1.19271e-014
lhumerus -29.9595 2.28301 81.584
lradius 22.4247
lwrist -7.61965
lhand -20.8049 -12.8455
lfingers 7.12502
lthumb 5.5627 17.0615
rfemur -27.8378 7.67671 18.5756
rtibia 7.08084
rfoot -17.8548 -7.19035
rtoes -34.2514
lfemur -27.9692 -9.25661 -15.6701
ltibia 7.8896
lfoot -8.29107 4.97034
ltoes -39.2544
88
root 9.43495 16.3659 9.45525 -150.4 -3.40917 -179.442
lowerback -27.3344 -1.86057 -4.99424
upperback -2.92176 -1.70613 -0.174389
thorax 12.0441 -1.36023 1.98276
lowerneck 0.2162 0.151262 -4.10037
upperneck 8.83732 -0.648807 6.96045
head 2.86057 -0.424544 2.99972
rclavicle -1.2424e-014 1.11319e-014
rhumerus -34.0507 -17.5187 -80.9507
rradius 28.9273
rwrist 0.420877
rhand -8.22126 -51.7743
rfingers 7.12502
rthumb 17.6959 -80.9891
lclavicle -1.2424e-014 1.11319e-014
lhumerus -29.8517 1.73883 81.6228
lradius 22.6277
lwrist -7.39389
lhand -20.6428 -12.6954
lfingers 7.12502
lthumb 5.7192 17.2074
rfemur -28.1388 7.71576 18.5563
rtibia 7.17354
rfoot -17.8556 -7.28481
rtoes -34.2141
lfemur -28.2985 -9.1583 -15.6279
ltibia 8.07288
lfoot -8.3188 4.83382
ltoes -39.6482
89
root 9.42784 16.3694 9.43918 -150.814 -3.15675 -179.337
lowerback -27.109 -1.74302 -4.77841
upperback -2.62818 -1.55517 -0.238603
thorax 12.2508 -1.26173 1.84479
lowerneck 0.107329 0.139096 -4.08181
upperneck 8.82982 -0.658382 6.96726
head 2.87888 -0.424723 2.99925
rclavicle -2.08724e-015 -2.70347e-014
rhumerus -33.9051 -17.3761 -81.036
rradius 28.8998
rwrist 0.362854
rhand -8.73105 -51.8099
rfingers 7.12502
rthumb 17.2053 -81.0682
lclavicle -2.08724e-015 -2.70347e-014
lhumerus -29.7594 1.13719 81.6166
lradius 22.8131
lwrist -6.88196
lhand -20.8061 -12.8407
lfingers 7.12502
lthumb 5.56158 17.0664
rfemur -27.6572 7.8447 18.6485
rtibia 7.16521
rfoot -17.9721 -7.07743
rtoes -34.1751
lfemur -27.5645 -9.38227 -15.6106
ltibia 7.72742
lfoot -8.26214 5.30701
ltoes -40.1143
90
root 9.43552 16.3635 9.46331 -150.301 -3.30997 -179.471
lowerback -27.0878 -1.86565 -4.93198
upperback -2.77433 -1.70153 -0.231557
thorax 12.083 -1.34266 1.88841
lowerneck 0.0496339 0.133289 -4.06709
upperneck 8.85539 -0.664257 6.94913
head 2.89832 -0.426151 2.99098
rclavicle -2.04748e-014 -8.74653e-015
rhumerus -33.8833 -17.2364 -80.9916
rradius 28.7033
rwrist 0.404294
rhand -8.42533 -50.9663
rfingers 7.12502
rthumb 17.4996 -80.1986
lclavicle -2.04748e-014 -8.74653e-015
lhumerus -29.8559 0.454174 81.6309
lradius 23.0791
lwrist -6.2724
lhand -21.0525 -12.8929
lfingers 7.12502
lthumb 5.32366 17.0202
rfemur -28.4445 7.98204 18.3881
rtibia 7.44278
rfoot -18.0319 -7.38315
rtoes -34.2387
lfemur -28.4209 -9.25845 -15.6131
ltibia 8.02408
lfoot -8.19274 5.04069
ltoes -39.6465
91
root 9.43718 16.3652 9.47067 -150.312 -3.2476 -179.487
lowerback -26.81 -1.85442 -4.95974
upperback -2.76366 -1.68235 -0.239818
thorax 11.9476 -1.32847 1.90928
lowerneck 0.0964008 0.126698 -4.03951
upperneck 8.87378 -0.678758 6.9358
head 2.89626 -0.434946 2.98067
rclavicle -1.39149e-015 -1.66979e-014
rhumerus -33.9836 -17.0962 -80.8984
rradius 28.6044
rwrist 0.477401
rhand -7.99681 -50.069
rfingers 7.12502
rthumb 17.9119 -79.2641
lclavicle -1.39149e-015 -1.66979e-014
lhumerus -29.9364 0.0756458 81.5831
lradius 23.1395
lwrist -6.33079
lhand -21.1556 -13.1497
lfingers 7.12502
lthumb 5.22412 16.7659
rfemur -28.5252 8.07068 18.3271
rtibia 7.53636
rfoot -18.0264 -7.37559
rtoes -33.9272
lfemur -28.4218 -9.23455 -15.6336
ltibia 8.00236
lfoot -8.23619 5.07483
ltoes -39.6939
92
root 9.44317 16.3696 9.48783 -150.215 -3.34021 -179.617
lowerback -26.4816 -1.90573 -5.1019
upperback -2.80204 -1.72172 -0.262755
thorax 11.7348 -1.34727 1.95955
lowerneck 0.174328 0.111111 -4.02748
upperneck 8.87331 -0.706625 6.94328
head 2.8833 -0.451023 2.97965
rclavicle 7.7526e-015 -5.56597e-015
rhumerus -34.2241 -16.8189 -80.8451
rradius 28.7059
rwrist 0.359012
rhand -7.95494 -49.9878
rfingers 7.12502
rthumb 17.9522 -79.1792
lclavicle 7.7526e-015 -5.56597e-015
lhumerus -30.0651 -0.335418 81.5395
lradius 23.1684
lwrist -6.51008
lhand -21.4845 -13.7885
lfingers 7.12502
lthumb 4.90652 16.1346
rfemur -28.7129 8.12615 18.1622
rtibia 7.61935
rfoot -17.9737 -7.6259
rtoes -33.5059
lfemur -28.7026 -9.03459 -15.8108
ltibia 8.21548
lfoot -8.21602 4.8025
ltoes -40.9006
93
root 9.4508 16.364 9.50953 -149.646 -3.44707 -179.719
lowerback -26.6269 -1.95606 -5.19913
upperback -2.92869 -1.78056 -0.275411
thorax 11.6706 -1.38724 1.97688
lowerneck 0.196082 0.0991539 -4.05308
upperneck 8.8667 -0.724231 6.96221
head 2.87868 -0.460588 2.99038
rclavicle -2.48481e-015 3.57812e-014
rhumerus -34.3926 -16.4617 -80.8234
rradius 28.773
rwrist 0.0447712
rhand -7.5541 -49.8961
rfingers 7.12502
rthumb 18.3378 -79.0517
lclavicle -2.48481e-015 3.57812e-014
lhumerus -30.2229 -0.895326 81.5519
lradius 23.3489
lwrist -6.37603
lhand -21.9116 -14.0204
lfingers 7.12502
lthumb 4.49415 15.912
rfemur -29.5529 8.16051 17.9604
rtibia 7.90674
rfoot -18.0018 -7.88864
rtoes -33.6514
lfemur -29.6031 -8.89473 -15.8067
ltibia 8.54276
lfoot -8.19152 4.59649
ltoes -41.2913
